<?xml version="1.0" encoding="UTF-8" standalone="no"?>
<!-- Created with Inkscape (http://www.inkscape.org/) -->

<svg
   xmlns:dc="http://purl.org/dc/elements/1.1/"
   xmlns:cc="http://creativecommons.org/ns#"
   xmlns:rdf="http://www.w3.org/1999/02/22-rdf-syntax-ns#"
   xmlns:svg="http://www.w3.org/2000/svg"
   xmlns="http://www.w3.org/2000/svg"
   xmlns:sodipodi="http://sodipodi.sourceforge.net/DTD/sodipodi-0.dtd"
   xmlns:inkscape="http://www.inkscape.org/namespaces/inkscape"
   width="210mm"
   height="297mm"
   viewBox="0 0 210 297"
   version="1.1"
   id="svg8"
   inkscape:version="0.92.2 (5c3e80d, 2017-08-06)"
   sodipodi:docname="logo_doc.svg">
  <defs
     id="defs2" />
  <sodipodi:namedview
     id="base"
     pagecolor="#ffffff"
     bordercolor="#666666"
     borderopacity="1.0"
     inkscape:pageopacity="0.0"
     inkscape:pageshadow="2"
     inkscape:zoom="0.7"
     inkscape:cx="593.19033"
     inkscape:cy="861.32333"
     inkscape:document-units="mm"
     inkscape:current-layer="layer1"
     showgrid="false"
     inkscape:snap-bbox="true"
     inkscape:window-width="1366"
     inkscape:window-height="705"
     inkscape:window-x="-8"
     inkscape:window-y="-8"
     inkscape:window-maximized="1" />
  <metadata
     id="metadata5">
    <rdf:RDF>
      <cc:Work
         rdf:about="">
        <dc:format>image/svg+xml</dc:format>
        <dc:type
           rdf:resource="http://purl.org/dc/dcmitype/StillImage" />
        <dc:title></dc:title>
      </cc:Work>
    </rdf:RDF>
  </metadata>
  <g
     inkscape:label="Capa 1"
     inkscape:groupmode="layer"
     id="layer1">
    <rect
       style="fill:#000000;fill-opacity:0;stroke-width:0.26458332"
       id="rect14"
       width="0.75595242"
       height="1.5119048"
       x="12.095239"
       y="18.053572" />
    <rect
       style="fill:#29ff00;fill-opacity:0;stroke-width:0.26458332"
       id="rect18"
       width="84.666672"
       height="28.726191"
       x="12.095239"
       y="18.053572" />
    <rect
       style="fill:#29ff00;fill-opacity:0;stroke-width:0.26458332"
       id="rect4517"
       width="0.75595242"
       height="1.5119048"
       x="12.095239"
       y="18.053572" />
    <rect
       style="fill:#29ff00;fill-opacity:0;stroke-width:0.24209146"
       id="rect4521"
       width="102.05357"
       height="27.214285"
       x="12.095239"
       y="19.565477"
       ry="3.1644487" />
    <rect
       style="fill:#29ff00;fill-opacity:0;stroke-width:0.26458332"
       id="rect4523"
       width="0.75595242"
       height="6.0159282e-014"
       x="12.095239"
       y="18.053572"
       ry="3.0079641e-014" />
    <rect
       style="fill:#29ff00;fill-opacity:0;stroke-width:0.26458332"
       id="rect4525"
       width="99.785713"
       height="47.625"
       x="12.095239"
       y="18.053572"
       ry="3.0079685e-014" />
    <rect
       style="fill:#29ff00;fill-opacity:0;stroke-width:0.26458332"
       id="rect4527"
       width="102.05357"
       height="28.726189"
       x="12.095239"
       y="18.053572"
       ry="3.0079685e-014" />
    <rect
       style="fill:#ff00ff;fill-opacity:0;stroke-width:0.26499999;stroke-miterlimit:4;stroke-dasharray:none;opacity:0.04"
       id="rect4553"
       width="99.785713"
       height="47.625"
       x="12.095239"
       y="18.053572"
       ry="3.0079685e-014" />
    <rect
       style="opacity:0.4;fill:#00ff00;fill-opacity:0.62814068;stroke:#000000;stroke-width:6.65653467;stroke-miterlimit:4;stroke-dasharray:none;stroke-opacity:0.53266332"
       id="rect4597"
       width="103.12532"
       height="39.672386"
       x="8.760457"
       y="18.526388"
       ry="4.38495e-014"
       transform="matrix(0.99995687,0.00928706,0,1,0,0)" />
    <path
       style="opacity:0.5;fill:#00ff00;fill-opacity:0.62814068;stroke:#000000;stroke-width:0.1;stroke-miterlimit:4;stroke-dasharray:none;stroke-opacity:0.53266332"
       id="path4705"
       d="m 26.46738,26.542251 c -0.071,1.805628 -0.06303,3.614049 -0.06507,5.420923 0.02453,1.668841 -0.08888,3.337984 0.205307,4.986851 0.310011,1.372627 0.444636,2.770711 0.52244,4.172768 0.165605,1.11992 -0.334031,2.620869 0.548674,3.499725 0.961893,0.846834 2.253006,0.975347 3.477003,1.091904 0.936437,-0.01341 1.947794,0.266332 2.85364,-0.07719 0.40999,-0.155482 0.781743,-0.398132 1.181396,-0.57853 -3.013199,1.708097 -6.023612,3.421124 -9.039602,5.124289 -0.183787,0.103785 0.359827,-0.220843 0.542805,-0.326046 3.372773,-1.939184 6.74371,-3.881607 10.124342,-5.807057 3.026069,-1.723506 -6.034519,3.477832 -9.060651,5.20123 -0.482666,0.274878 0.409348,-0.270418 1.042935,-0.659445 0.976466,-0.73411 1.934315,-1.488633 2.942494,-2.18331 0.961655,-0.74422 1.833608,-1.5944 2.678835,-2.46738 0.840415,-0.962459 1.519023,-2.092277 2.002375,-3.27501 0.402913,-1.367192 0.783185,-2.736569 1.012764,-4.144295 0.105344,-1.089099 -0.285949,-2.098284 -0.811948,-3.032991 -0.650118,-0.777877 -1.492036,-1.281813 -2.366971,-1.770962 -1.136684,-0.4831 -2.391944,-0.506886 -3.607644,-0.553341 -1.489196,-0.03583 -2.979036,-0.02384 -4.468513,-0.01918 -1.006344,0.345103 -2.10127,0.350019 -3.063235,0.796279 0,0 8.836404,-6.84844 8.836404,-6.84844 v 0 c 1.070274,-0.209423 2.139865,-0.496598 3.236555,-0.497065 1.505688,-0.0024 3.012784,-0.01399 4.516858,0.06716 1.364499,0.105085 2.743666,0.259433 3.945673,0.972187 1.004618,0.634809 1.990489,1.268566 2.673461,2.272784 0.629497,1.143794 1.122079,2.371048 1.106186,3.697108 -0.181451,1.469734 -0.54633,2.881985 -0.902065,4.313007 -0.364548,1.358337 -1.084419,2.521903 -1.818357,3.708667 -0.80359,0.9221 -1.654223,1.825162 -2.597872,2.590163 -0.886746,0.889981 -2.086803,1.349832 -2.909676,2.312818 -3.421838,2.390129 -8.464815,4.928378 -11.098408,6.515055 -2.971652,1.790348 5.998691,-3.487134 9.004188,-5.220068 0.18451,-0.106386 -0.360563,0.226806 -0.540848,0.340209 -3.384235,1.929892 -6.76847,3.859787 -10.152706,5.789682 -1.42379,0.495644 -2.883828,0.386529 -4.363543,0.190888 -1.475136,-0.246382 -2.910104,-0.640029 -3.976607,-1.760833 -0.942573,-1.255099 -0.864409,-2.636877 -0.855847,-4.150834 -0.06085,-1.355873 -0.16351,-2.711455 -0.461173,-4.039481 -0.324833,-1.72476 -0.242755,-3.453958 -0.225185,-5.204079 -0.002,-1.784752 0.0068,-3.571166 -0.06507,-5.354611 0,0 9.996664,-5.093554 9.996664,-5.093554 z"
       inkscape:connector-curvature="0" />
    <path
       style="opacity:0.5;fill:#00ff00;fill-opacity:0.62814068;stroke:#000000;stroke-width:0.1;stroke-miterlimit:4;stroke-dasharray:none;stroke-opacity:0.53266332"
       id="path4707"
       d="m 68.537111,24.672884 c 0.0784,1.69509 0.409713,3.362156 0.913038,4.978969 0.515945,1.924423 1.271222,3.764042 1.895157,5.653338 0.642824,1.813804 1.265214,3.63592 1.967757,5.427232 0.556239,1.300612 0.648972,2.960682 1.674775,4.012993 0.05437,-0.02307 0.120365,-0.02847 0.163111,-0.06923 0.159575,-0.152167 0.443835,-0.717754 0.250158,-0.612362 -3.125438,1.700741 -6.12788,3.619725 -9.234101,5.355314 -0.190299,0.106329 0.327104,-0.290501 0.467677,-0.45711 0.161351,-0.191227 0.289645,-0.408061 0.434465,-0.612092 0.840332,-1.420654 1.353285,-2.977454 1.824392,-4.547489 0.41661,-1.421643 1.001302,-2.759921 1.701133,-4.062235 0.785037,-1.210577 1.406128,-2.516108 2.045822,-3.806489 1.658646,-4.129056 8.397904,-9.921576 11.652146,-6.047798 0.931175,1.095774 1.398643,2.428486 1.978737,3.714811 0.486476,1.307028 1.059648,2.571382 1.617226,3.84698 0.752041,1.226172 1.331883,2.543631 2.01813,3.802481 0.241928,0.285152 0.651246,0.885595 1.131645,0.747279 0.233775,-0.06731 0.778404,-0.57924 0.565853,-0.460907 -3.110542,1.731748 -6.205434,3.49146 -9.308152,5.237189 1.10319,-0.782667 1.493914,-2.451196 1.940001,-3.684733 0.648274,-1.70343 1.132891,-3.461819 1.742898,-5.178028 0.540189,-1.262023 0.974704,-2.562157 1.471525,-3.841047 0.362289,-1.179089 0.800942,-2.325655 1.14717,-3.510108 0.282295,-0.87885 0.526029,-1.765154 0.860306,-2.626124 0,0 10.134372,-4.689048 10.134372,-4.689048 v 0 c -0.345445,0.846655 -0.712509,1.658108 -0.895164,2.562364 -0.218549,0.605713 -0.31541,1.22306 -0.522418,1.831057 -0.12261,0.360119 -0.337354,0.684414 -0.459261,1.044768 -0.0712,0.210452 -0.09638,0.433758 -0.144565,0.650637 -0.416833,1.337278 -1.017493,2.609768 -1.49641,3.926157 -0.793093,1.633884 -1.046199,3.452657 -1.813277,5.100564 -0.399809,1.473128 -1.040833,2.860704 -1.519883,4.30607 -3.765478,2.153327 -9.100055,8.891502 -12.514818,4.129968 -0.678555,-1.294852 -1.28964,-2.622444 -2.046308,-3.878328 -0.575487,-1.268066 -1.160751,-2.525977 -1.626166,-3.841041 -0.514784,-1.166231 -0.884751,-2.394591 -1.837164,-3.306533 -0.199218,-0.06878 -0.09839,-0.07613 -0.295508,0.0682 3.135061,-1.786821 6.270125,-3.573645 9.405189,-5.360466 0.395213,-0.234188 -2.03481,0.637159 -1.053907,0.839888 -0.59205,1.339977 -1.25444,2.656848 -1.978099,3.928459 -0.854033,1.1526 -1.385133,2.476421 -1.80684,3.839888 -0.646144,1.549908 -0.927552,3.251591 -1.74235,4.746114 -2.021906,4.108963 -7.980613,9.819436 -11.880323,6.661004 -0.908367,-1.313021 -1.266444,-2.8575 -1.757122,-4.356806 -0.692062,-1.819259 -1.293256,-3.6728 -1.958371,-5.502518 -0.601073,-1.896309 -1.42534,-3.711411 -1.918759,-5.643862 -0.562094,-1.706896 -0.858707,-3.462004 -1.190381,-5.223817 0,0 9.996664,-5.093554 9.996664,-5.093553 z"
       inkscape:connector-curvature="0" />
    <text
       xml:space="preserve"
       style="font-style:normal;font-variant:normal;font-weight:normal;font-stretch:normal;font-size:8.46666622px;line-height:1.25;font-family:sans-serif;-inkscape-font-specification:'sans-serif, Normal';font-variant-ligatures:normal;font-variant-caps:normal;font-variant-numeric:normal;font-feature-settings:normal;text-align:start;letter-spacing:0px;word-spacing:0px;writing-mode:lr-tb;text-anchor:start;opacity:1;fill:#000000;fill-opacity:1;stroke:none;stroke-width:0.26458332"
       x="116.71907"
       y="42.69762"
       id="text4711"><tspan
         sodipodi:role="line"
         id="tspan4709"
         x="116.71907"
         y="42.69762"
         style="font-style:normal;font-variant:normal;font-weight:normal;font-stretch:normal;font-size:8.46666622px;font-family:sans-serif;-inkscape-font-specification:'sans-serif, Normal';font-variant-ligatures:normal;font-variant-caps:normal;font-variant-numeric:normal;font-feature-settings:normal;text-align:start;writing-mode:lr-tb;text-anchor:start;fill:#000000;fill-opacity:1;stroke-width:0.26458332">Desarrollador Web</tspan></text>
    <text
       xml:space="preserve"
       style="font-style:normal;font-variant:normal;font-weight:normal;font-stretch:normal;font-size:7.76111126px;line-height:1.25;font-family:sans-serif;-inkscape-font-specification:'sans-serif, Normal';font-variant-ligatures:normal;font-variant-caps:normal;font-variant-numeric:normal;font-feature-settings:normal;text-align:start;letter-spacing:0px;word-spacing:0px;writing-mode:lr-tb;text-anchor:start;fill:#000000;fill-opacity:1;stroke:none;stroke-width:0.26458332"
       x="117.38522"
       y="52.300503"
       id="text4715"><tspan
         sodipodi:role="line"
         id="tspan4713"
         x="117.38522"
         y="52.300503"
         style="font-style:normal;font-variant:normal;font-weight:normal;font-stretch:normal;font-size:7.76111126px;font-family:sans-serif;-inkscape-font-specification:'sans-serif, Normal';font-variant-ligatures:normal;font-variant-caps:normal;font-variant-numeric:normal;font-feature-settings:normal;text-align:start;writing-mode:lr-tb;text-anchor:start;stroke-width:0.26458332">Córdoba-Argentina</tspan></text>
    <text
       xml:space="preserve"
       style="font-style:normal;font-weight:normal;font-size:10.58333302px;line-height:1.25;font-family:sans-serif;letter-spacing:0px;word-spacing:0px;fill:#000000;fill-opacity:1;stroke:none;stroke-width:0.26458332"
       x="115.46043"
       y="31.847137"
       id="text4721"><tspan
         sodipodi:role="line"
         id="tspan4719"
         x="115.46043"
         y="31.847137"
         style="stroke-width:0.26458332">DANIEL O. CAJAL</tspan></text>
  </g>
</svg>
